<?xml version="1.0" encoding="utf-8" ?>
<svg xmlns="http://www.w3.org/2000/svg" xmlns:xlink="http://www.w3.org/1999/xlink" width="1024" height="1024">
	<path fill="#010101" d="M306.373 268.658C307.757 268.563 309.105 268.534 310.49 268.654C342.767 271.461 406.279 341.517 427.936 366.913C486.494 349.641 549.873 356.024 607.27 374.463C613.008 369.125 618.43 363.551 624.371 358.412C645.424 340.402 668.546 324.961 693.249 312.416C709.969 303.885 738.912 290.05 757.398 296.428C763.796 298.635 768.474 303.552 771.434 309.513C776.775 320.267 777.32 333.387 777.692 345.179C779.332 397.264 766.024 447.608 749.531 496.539C766.48 538.871 766.638 578.365 758.085 622.745C764.083 623.853 770.235 624.354 776.262 625.397C785.421 626.981 794.487 629.067 803.645 630.66C810.185 631.797 817.615 632.406 823.919 634.419C826.568 635.265 829.564 636.501 831.446 638.619C833.235 640.633 834.098 643.304 833.826 645.984C833.559 648.92 832.069 651.609 829.721 653.392C827.296 655.224 824.444 655.772 821.462 655.567C813.66 655.029 804.998 651.885 797.335 650.106C782.806 646.734 768.029 643.694 753.26 641.553C747.155 656.411 741.589 669.679 733.422 683.583C739.227 686.853 745.483 689.446 751.42 692.494C760.232 697.017 768.802 701.996 777.446 706.828C782.301 709.542 787.904 712.103 792.185 715.662C794.585 717.657 796.167 720.321 796.393 723.474C796.584 726.15 795.599 728.591 793.727 730.49C791.699 732.548 788.966 733.679 786.065 733.316C778.242 732.337 768.952 724.572 762.308 720.535C756.915 717.257 726.728 699.152 722.224 699.692C722.069 699.71 721.923 699.774 721.772 699.815C701.009 724.232 681.603 740.929 653.745 757.004C589.268 794.208 502.083 802.497 430.649 783.336C376.587 768.834 326.049 741.031 291.46 696.109C284.624 687.229 278.814 677.721 273.21 668.033C257.467 670.178 241.779 672.705 226.158 675.612C216.846 677.407 207.645 679.737 198.339 681.581C194.105 682.421 188.777 683.926 185.001 681.248C182.567 679.522 180.769 676.942 180.287 673.968C179.926 671.741 180.312 669.329 181.721 667.517C183.471 665.267 186.232 664.273 188.844 663.389C196.087 660.94 204.084 659.851 211.584 658.393C229.123 654.929 246.749 651.916 264.444 649.356C259.606 638.481 256.359 627.172 253.875 615.555C238.563 612.282 221.152 609.89 205.554 609.321C195.659 608.959 185.155 609.788 175.395 608.299C172.566 607.868 170.175 606.909 168.486 604.497C166.944 602.295 166.404 599.413 166.882 596.782C167.288 594.543 168.508 592.416 170.434 591.152C179.851 584.974 237.555 593.243 250.282 595.892C247.212 562.263 249.806 529.538 262.182 497.879C265.514 489.356 272.784 480.502 274.529 472.09C275.902 465.472 273.477 457.452 272.497 450.838C271.066 441.176 269.576 431.348 268.741 421.617C265.566 384.607 263.649 311.079 286.58 280.662C291.714 273.851 297.871 269.901 306.373 268.658ZM296.252 475.794C291.127 485.396 284.929 494.368 280.462 504.317C267.657 532.839 264.336 568.302 269.215 599.063C279.698 600.844 303.502 604.885 312.754 608.744C314.854 609.621 316.694 610.661 318.034 612.549C319.739 614.952 320.411 618.464 319.897 621.349C319.559 623.244 318.483 624.86 316.853 625.883C314.895 627.111 312.501 627.481 310.223 627.411C301.047 627.129 283.212 621.376 273.059 619.326C276.392 628.687 280.643 638.263 283.284 647.785C295.212 645.577 311.289 642.877 323.005 645.583L324.539 645.925C327.385 648.487 329.161 650.432 329.278 654.42C329.348 656.817 328.751 658.877 326.972 660.562C320.91 666.304 300.993 665.344 292.753 665.556C303.093 680.689 314.766 695.563 328.07 708.231C360.499 739.108 405.215 759.905 448.998 768.171C522.327 782.015 599.388 771.714 661.879 729.05C677.449 718.42 691.022 705.142 704.093 691.635C693.219 687.804 682.384 684.277 671.237 681.322C663.488 679.268 654.366 678.554 647.185 675.021C644.784 673.84 643.474 672.076 642.049 669.881C641.693 666.364 641.509 662.772 643.973 659.886C645.507 658.088 647.836 657.287 650.154 657.241C652.352 657.197 654.549 657.72 656.669 658.248C676.665 662.266 697.543 668.059 716.52 675.555C723.713 664.876 729.419 651.251 734.003 639.224C717.914 637.728 701.796 636.566 685.659 635.739C675.216 635.271 664.309 636.2 654.03 634.226C651.343 633.71 648.78 632.512 647.05 630.324C645.47 628.293 644.806 625.696 645.215 623.156C645.611 620.494 647.128 618.129 649.382 616.659C650.865 615.69 652.766 615.05 654.534 614.914C661.385 614.39 668.781 615.168 675.695 615.363C697.067 615.968 718.587 616.665 739.719 620.128C741.238 615.625 741.756 610.592 742.51 605.908C746.718 579.776 746.867 551.89 739.745 526.257C736.989 516.338 732.37 507.405 728.889 497.802C732.437 486.023 737.166 474.635 740.814 462.889C752.083 426.608 759.227 389.055 759.196 350.986C759.187 340.976 759.514 327.772 754.597 318.784C753.306 316.425 751.389 314.249 748.685 313.578C735.912 310.408 685.835 338.217 673.516 346.277C659.617 355.369 646.464 365.553 634.181 376.733C627.684 382.714 621.778 390.671 614.388 395.439C612.182 396.862 610.699 396.358 608.266 395.857C602.894 394.748 597.676 392.369 592.497 390.581C587.199 388.752 581.746 387.316 576.322 385.919C540.767 376.693 503.789 374.263 467.332 378.755C459.376 379.664 451.477 381.019 443.672 382.814C437.348 384.279 430.205 387.02 423.763 387.238C422.168 387.292 420.472 386.157 419.228 385.267C411.779 379.933 402.394 367.032 395.771 359.863C376.047 338.515 347.625 309.081 323.235 293.677C319.088 291.058 313.139 287.373 308.068 287.99C299.105 293.122 295.321 303.989 292.791 313.422C280.666 358.614 286.117 430.55 296.252 475.794Z"/>
	<path fill="#010101" d="M464.313 589.675C472.154 588.443 482.217 589.258 489.858 591.503C495.117 593.047 500.549 595.832 503.165 600.896C505.076 604.593 505.017 608.811 503.605 612.664C499.874 622.846 489.732 627.768 480.619 632.092C479.249 639.676 480.282 646.399 483.587 653.337C487.418 661.38 495.624 667.226 503.89 670.033C520.435 675.652 539.455 671.221 550.132 656.952C553.389 652.6 554.622 645.673 559.936 643.308C562.404 642.21 565.159 642.217 567.654 643.232C570.101 644.226 572.152 646.079 573.17 648.539C574.678 652.18 573.334 655.604 571.812 658.966C565.717 672.427 552.952 683.341 539.232 688.454C523.596 694.281 505.026 692.822 489.97 685.969C482.925 682.561 476.283 677.169 471.42 671.052C460.678 681.347 448.057 686.774 433.048 686.608C418.732 686.492 405.088 680.524 395.286 670.09C389.91 664.475 382.79 655.1 383.202 646.864C383.33 644.293 384.307 641.907 386.308 640.234C388.387 638.495 391.111 637.81 393.779 638.167C402.238 639.298 403.334 648.84 407.59 654.472C412.584 661.082 420.801 665.625 429.008 666.599C436.762 667.519 445.241 665.305 451.328 660.395C459.956 653.436 462.33 641.536 463.254 631.106C460.462 629.73 457.642 628.374 455.075 626.601C449.375 622.663 444.614 616.736 443.504 609.747C442.827 605.49 443.564 601.064 446.244 597.605C450.645 591.927 457.646 590.652 464.313 589.675Z"/>
	<path fill="#010101" d="M379.635 498.178C383.726 498.211 387.324 498.414 391.04 500.386C397.853 504.002 401.835 511.204 403.96 518.354C407.869 531.508 407.468 548.202 400.719 560.406C397.292 566.604 392.318 570.501 385.535 572.443C380.413 572.915 376.063 572.474 371.602 569.694C364.307 565.147 360.585 556.719 358.911 548.603C356.316 536.027 357.009 518.908 364.542 507.989C368.352 502.465 373.144 499.489 379.635 498.178Z"/>
	<path fill="#010101" d="M619.886 515.73C629.076 515.646 645.606 516.325 653.583 521.285C657.454 523.692 658.317 526.131 659.349 530.329C658.576 533.341 657.716 536.729 655.188 538.782C649.884 543.089 641.28 538.827 635.521 537.469C632.257 536.699 628.861 536.302 625.52 536.074C608.119 534.889 592.08 540.079 578.943 551.608C574.639 555.873 568.309 565.544 562.131 566.414C559.497 566.785 556.897 565.932 554.806 564.336C552.645 562.686 551.084 560.517 550.88 557.74C550.545 553.173 553.759 548.73 556.58 545.41C573.022 526.061 595.115 517.689 619.886 515.73Z"/>
	<path fill="#010101" d="M230.487 132.079C230.677 132.067 230.868 132.049 231.058 132.043C234.424 131.935 238.016 132.232 240.529 134.727C242.412 136.597 242.896 139.083 243.224 141.627C244.145 148.775 243.387 156.377 243.33 163.595L243.304 200.62C243.767 200.605 244.23 200.594 244.693 200.587L277.541 200.28C284.373 200.215 291.802 199.562 298.545 200.657C301.263 201.099 303.846 201.731 305.804 203.788C307.712 205.794 308.657 208.581 308.572 211.328C308.492 213.883 307.439 216.507 305.532 218.243C303.898 219.73 301.932 220.124 299.8 220.434C289.359 221.955 276.2 221.111 265.509 220.942C258.149 220.825 250.728 221.05 243.384 220.588C242.632 234.848 243.52 249.385 243.476 263.686C243.458 269.401 243.871 275.98 242.645 281.568C241.992 284.548 239.775 285.83 237.342 287.304C236.423 287.482 235.489 287.66 234.554 287.724C231.609 287.926 228.412 287.169 226.27 285.041C224.518 283.299 223.863 281.124 223.471 278.74C222.342 271.887 222.956 264.371 222.964 257.433L223.011 220.776C214.746 221.214 206.285 220.819 197.999 220.851C189.499 220.883 180.936 221.314 172.446 221.032C168.504 220.902 163.814 220.556 161.059 217.419C158.468 214.467 158.909 210.861 159.101 207.23C159.932 205.83 160.784 204.199 161.991 203.091C163.478 201.726 165.309 201.125 167.269 200.802C173.142 199.834 179.5 200.39 185.449 200.37C197.971 200.334 210.493 200.378 223.015 200.5C222.982 188.948 221.403 145.139 224.257 137.435C225.365 134.441 227.787 133.375 230.487 132.079Z"/>
	<path fill="#010101" d="M704.473 189.821C711.562 181.953 719.157 174.605 726.527 167.008C731.269 162.121 735.479 156.59 740.946 152.459C743.384 150.617 746.169 149.062 749.268 148.807C751.819 148.597 754.467 149.399 756.382 151.12C758.11 152.672 759.047 154.778 759.144 157.089C759.248 159.573 758.426 161.852 757.114 163.929C753.9 169.013 749.078 173.195 744.811 177.376C735.888 186.119 725.917 194.782 717.794 204.218L717.381 204.706C725.869 212.493 754.036 238.343 758.357 247.008C759.417 249.133 759.715 251.336 758.879 253.6C757.625 256.993 754.618 259.162 751.51 260.71C750.696 260.809 749.92 260.875 749.099 260.844C746.896 260.761 745.179 260.177 743.33 258.983C737.685 255.338 732.792 249.358 728.077 244.565C720.058 236.416 712.015 228.35 704.285 219.922L683.317 241.015C677.432 247.019 671.009 255.511 663.777 259.717C660.69 261.513 657.88 260.778 654.624 259.853C653.914 259.238 653.203 258.617 652.545 257.945C650.61 255.967 649.285 253.539 649.354 250.714C649.418 248.06 650.611 246.07 652.123 243.97C656.535 237.844 662.709 232.745 668.066 227.451L690.768 204.646C683.196 196.673 653.457 169.271 650.403 161.644C649.492 159.37 649.562 156.62 650.67 154.435C652.364 151.095 655.455 149.562 658.883 148.537C659.21 148.551 659.537 148.558 659.864 148.578C662.137 148.718 663.972 149.665 665.796 150.978C671.172 154.843 675.734 160.202 680.389 164.895C688.538 173.11 696.683 181.26 704.473 189.821Z"/>
	<path fill="#010101" d="M746.981 812.043C747.392 812.114 747.801 812.192 748.209 812.278C752.424 813.182 754.208 815.74 756.447 819.128C756.617 821.693 757.014 824.453 755.53 826.731C751.167 833.43 744.052 839.691 738.569 845.53C724.088 860.941 709.417 876.173 694.562 891.223C687.027 898.905 679.625 907.88 671.35 914.711C669.66 916.106 667.876 916.539 665.776 917.041C663.602 916.767 661.642 916.424 659.753 915.24C657.502 913.83 655.832 911.865 655.365 909.196C654.801 905.971 655.725 903.997 657.472 901.43C662.227 894.441 668.97 888.465 674.856 882.431L701.831 854.498L725.13 829.921C729.633 825.158 734.045 819.955 739.04 815.719C741.515 813.618 743.802 812.631 746.981 812.043Z"/>
	<path fill="#010101" d="M88.6392 511.603C97.7607 510.841 107.48 511.432 116.65 511.447C136.206 511.388 155.762 511.509 175.316 511.811C181.497 511.861 189.808 510.216 195.711 511.874C198.251 512.587 200.477 514.29 201.657 516.669C202.971 519.318 202.961 522.418 201.982 525.17C200.805 528.48 198.682 530.084 195.644 531.609C187.709 532.885 178.4 531.929 170.303 531.993L115.645 532.054C109.692 532.027 91.7895 532.648 86.9417 530.994C84.8323 530.274 83.0163 528.901 82.0589 526.857C80.7711 524.108 81.1181 520.764 82.1309 517.99C83.4054 514.499 85.3907 513.165 88.6392 511.603Z"/>
	<path fill="#010101" d="M888.317 498.264C901.197 497.933 914.086 498.045 926.959 498.599C927.85 499.146 928.73 499.712 929.522 500.4C931.68 502.274 933.716 505.081 933.839 508.039C933.956 510.848 932.639 514.403 930.583 516.351C928.86 517.983 926.696 518.55 924.403 518.848C917.398 519.755 909.718 519.12 902.633 519.116L859.375 519.197C850.579 519.376 824.69 521.417 818.679 515.89C816.765 514.13 816.031 511.124 815.966 508.603C815.896 505.927 816.733 503.358 818.65 501.443C819.987 500.108 821.506 499.287 823.358 498.909C830.997 497.35 840.166 498.287 847.947 498.307L888.317 498.264Z"/>
	<path fill="#010101" d="M666.703 821.186C674.728 819.439 682.637 824.57 684.312 832.61C685.987 840.649 680.786 848.512 672.732 850.116C664.779 851.7 657.035 846.578 655.381 838.639C653.726 830.7 658.779 822.911 666.703 821.186Z"/>
	<path fill="#010101" d="M873.37 447.236C881.244 445.274 889.209 450.101 891.115 457.989C893.02 465.877 888.137 473.808 880.236 475.657C872.413 477.488 864.58 472.664 862.693 464.855C860.807 457.046 865.575 449.178 873.37 447.236Z"/>
	<path fill="#010101" d="M873.725 540.249C881.455 538.427 889.207 543.184 891.084 550.9C892.961 558.617 888.261 566.403 880.558 568.336C872.776 570.289 864.892 565.53 862.995 557.734C861.099 549.938 865.915 542.089 873.725 540.249Z"/>
	<path fill="#010101" d="M735.768 882.206C740.837 881.132 746.089 882.905 749.469 886.832C752.85 890.759 753.822 896.217 752.005 901.07C750.188 905.923 745.871 909.4 740.742 910.141C733.162 911.237 726.079 906.121 724.737 898.581C723.394 891.041 728.275 883.795 735.768 882.206Z"/>
</svg>
